<?xml version="1.0" standalone="no"?>
<!DOCTYPE svg PUBLIC "-//W3C//DTD SVG 20010904//EN"
 "http://www.w3.org/TR/2001/REC-SVG-20010904/DTD/svg10.dtd">
<svg version="1.0" xmlns="http://www.w3.org/2000/svg"
 width="16.000000pt" height="16.000000pt" viewBox="0 0 16.000000 16.000000"
 preserveAspectRatio="xMidYMid meet">
<metadata>
Created by potrace 1.11, written by Peter Selinger 2001-2013
</metadata>
<g transform="translate(0.000000,16.000000) scale(0.000960,-0.000960)"
fill="#000000" stroke="none">
<path d="M7969 16666 c-2 -2 -63 -6 -136 -10 -166 -8 -528 -43 -618 -60 -11
-2 -47 -7 -80 -11 -92 -10 -436 -72 -565 -101 -698 -155 -1312 -371 -1935
-679 -1084 -537 -2039 -1304 -2800 -2250 -883 -1098 -1477 -2414 -1714 -3795
-31 -185 -36 -215 -46 -295 -4 -27 -8 -57 -10 -65 -2 -8 -7 -46 -10 -85 -4
-38 -8 -81 -10 -94 -2 -12 -7 -60 -10 -105 -4 -44 -8 -91 -10 -104 -20 -124
-28 -911 -12 -1167 9 -159 21 -301 32 -400 155 -1363 599 -2593 1343 -3720 48
-71 89 -132 92 -135 3 -3 25 -34 50 -70 126 -184 453 -594 607 -761 244 -265
404 -423 698 -688 226 -205 574 -471 885 -676 158 -104 533 -335 544 -335 2 0
37 -19 78 -42 329 -187 903 -440 1290 -568 51 -17 100 -34 108 -37 8 -3 20 -7
25 -9 6 -2 71 -21 145 -44 268 -81 689 -186 820 -205 25 -3 53 -8 63 -11 11
-4 29 -7 40 -9 29 -4 96 -15 127 -21 44 -8 353 -52 415 -59 33 -3 74 -8 90
-10 17 -2 66 -7 110 -10 44 -4 94 -8 110 -10 94 -12 341 -19 640 -19 365 0
544 6 765 29 25 2 74 7 110 10 36 3 81 8 101 11 20 2 56 7 80 9 24 2 62 7 84
10 22 4 54 9 70 11 17 2 41 6 55 9 14 2 43 7 65 10 23 3 52 8 65 10 14 3 41 7
60 10 19 3 44 7 55 9 16 3 172 35 250 50 11 2 72 16 135 31 63 15 123 28 133
30 10 3 27 7 37 10 10 3 27 8 38 10 10 2 52 13 92 25 40 12 81 23 90 25 80 15
538 169 746 250 302 118 726 316 974 454 30 17 73 40 95 52 22 12 119 69 215
127 447 268 911 614 1320 986 77 70 508 502 550 552 19 22 89 103 155 180 176
203 385 473 516 664 24 36 48 69 52 75 25 31 256 398 299 475 14 25 42 74 63
110 90 158 216 402 302 585 52 112 193 442 193 451 0 4 6 20 14 37 42 95 179
497 245 722 27 92 118 452 124 490 3 17 9 48 15 70 6 22 13 54 15 70 3 17 14
80 26 140 11 61 23 126 26 145 3 19 7 46 10 60 2 14 7 43 10 65 3 23 7 50 9
60 2 11 7 45 11 75 3 30 8 66 10 80 2 14 6 54 10 90 4 36 8 76 10 90 2 14 7
57 10 95 3 39 8 84 10 100 27 224 27 1104 0 1350 -2 17 -6 62 -10 100 -16 175
-33 309 -80 620 -3 22 -8 47 -10 55 -2 8 -7 31 -10 50 -12 74 -38 202 -75 365
-390 1705 -1324 3261 -2653 4419 -757 660 -1612 1168 -2567 1526 -632 236
-1340 403 -2015 474 -117 13 -145 15 -235 21 -52 4 -111 9 -130 12 -41 6 -885
15 -891 9z"/>
</g>
</svg>
