<?xml version="1.0" encoding="UTF-8" standalone="no"?>
<!-- Created with Inkscape (http://www.inkscape.org/) -->

<svg
   xmlns:dc="http://purl.org/dc/elements/1.1/"
   xmlns:cc="http://creativecommons.org/ns#"
   xmlns:rdf="http://www.w3.org/1999/02/22-rdf-syntax-ns#"
   xmlns:svg="http://www.w3.org/2000/svg"
   xmlns="http://www.w3.org/2000/svg"
   xmlns:sodipodi="http://sodipodi.sourceforge.net/DTD/sodipodi-0.dtd"
   xmlns:inkscape="http://www.inkscape.org/namespaces/inkscape"
   width="450"
   height="276"
   id="svg2"
   version="1.1"
   inkscape:version="0.48.4 r9939"
   sodipodi:docname="New document 1">
  <defs
     id="defs4" />
  <sodipodi:namedview
     id="base"
     pagecolor="#ffffff"
     bordercolor="#666666"
     borderopacity="1.0"
     inkscape:pageopacity="0.0"
     inkscape:pageshadow="2"
     inkscape:zoom="1.979899"
     inkscape:cx="265.18786"
     inkscape:cy="137.31338"
     inkscape:document-units="px"
     inkscape:current-layer="layer1"
     showgrid="false"
     inkscape:window-width="1301"
     inkscape:window-height="744"
     inkscape:window-x="1431"
     inkscape:window-y="271"
     inkscape:window-maximized="1" />
  <metadata
     id="metadata7">
    <rdf:RDF>
      <cc:Work
         rdf:about="">
        <dc:format>image/svg+xml</dc:format>
        <dc:type
           rdf:resource="http://purl.org/dc/dcmitype/StillImage" />
        <dc:title></dc:title>
      </cc:Work>
    </rdf:RDF>
  </metadata>
  <g
     inkscape:label="Layer 1"
     inkscape:groupmode="layer"
     id="layer1"
     transform="translate(0,-776.362)">
    <path
       sodipodi:type="arc"
       style="fill:#ffffff;stroke:#000000;stroke-opacity:1"
       id="path2995"
       sodipodi:cx="129.29953"
       sodipodi:cy="388.69196"
       sodipodi:rx="24.243662"
       sodipodi:ry="25.253813"
       d="m 153.54319,388.69196 c 0,13.94729 -10.85426,25.25381 -24.24366,25.25381 -13.3894,0 -24.24366,-11.30652 -24.24366,-25.25381 0,-13.9473 10.85426,-25.25382 24.24366,-25.25382 13.3894,0 24.24366,11.30652 24.24366,25.25382 z"
       transform="translate(120.04566,521.83044)" />
    <path
       style="fill:none;stroke:#000000;stroke-width:1px;stroke-linecap:butt;stroke-linejoin:miter;stroke-opacity:1"
       d="m 262.9028,890.62119 74.28572,-67.85713 0,0"
       id="path3769"
       inkscape:connector-curvature="0" />
    <path
       transform="translate(234.12321,612.22583)"
       sodipodi:type="arc"
       style="fill:#ffffff;stroke:#000000;stroke-opacity:1"
       id="path2995-6"
       sodipodi:cx="129.29953"
       sodipodi:cy="388.69196"
       sodipodi:rx="24.243662"
       sodipodi:ry="25.253813"
       d="m 153.54319,388.69196 c 0,13.94729 -10.85426,25.25381 -24.24366,25.25381 -13.3894,0 -24.24366,-11.30652 -24.24366,-25.25381 0,-13.9473 10.85426,-25.25382 24.24366,-25.25382 13.3894,0 24.24366,11.30652 24.24366,25.25382 z" />
    <path
       transform="translate(232.88898,433.35781)"
       sodipodi:type="arc"
       style="fill:#ffffff;stroke:#000000;stroke-opacity:1"
       id="path2995-7"
       sodipodi:cx="129.29953"
       sodipodi:cy="388.69196"
       sodipodi:rx="24.243662"
       sodipodi:ry="25.253813"
       d="m 153.54319,388.69196 c 0,13.94729 -10.85426,25.25381 -24.24366,25.25381 -13.3894,0 -24.24366,-11.30652 -24.24366,-25.25381 0,-13.9473 10.85426,-25.25382 24.24366,-25.25382 13.3894,0 24.24366,11.30652 24.24366,25.25382 z" />
    <path
       style="fill:none;stroke:#000000;stroke-width:1px;stroke-linecap:butt;stroke-linejoin:miter;stroke-opacity:1"
       d="m 264.73025,931.14207 74.28572,67.85714 0,0"
       id="path3769-5"
       inkscape:connector-curvature="0" />
    <path
       sodipodi:type="arc"
       style="fill:#ffffff;stroke:#000000;stroke-opacity:1"
       id="path2995-3"
       sodipodi:cx="129.29953"
       sodipodi:cy="388.69196"
       sodipodi:rx="24.243662"
       sodipodi:ry="25.253813"
       d="m 153.54319,388.69196 c 0,13.94729 -10.85426,25.25381 -24.24366,25.25381 -13.3894,0 -24.24366,-11.30652 -24.24366,-25.25381 0,-13.9473 10.85426,-25.25382 24.24366,-25.25382 13.3894,0 24.24366,11.30652 24.24366,25.25382 z"
       transform="translate(-48.539583,520.50067)" />
    <path
       style="fill:none;stroke:#000000;stroke-width:1px;stroke-linecap:butt;stroke-linejoin:miter;stroke-opacity:1"
       d="m 105.75995,909.19262 c 118.57142,0 118.57142,0 118.57142,0 l 0,0"
       id="path3852"
       inkscape:connector-curvature="0" />
  </g>
</svg>
